<svg xmlns="http://www.w3.org/2000/svg" xmlns:xlink="http://www.w3.org/1999/xlink" viewBox="0 0 92.23 224.16"><defs><style>.cls-1{fill:none;}.cls-2{clip-path:url(#clip-path);}.cls-3{fill:#efe23b;}.cls-4{fill:#003b4b;}</style><clipPath id="clip-path" transform="translate(-83.18 -10.14)"><rect class="cls-1" width="258.24" height="258.23"/></clipPath></defs><title>chronic_disease_management</title><g id="Layer_2" data-name="Layer 2"><g id="Layer_1-2" data-name="Layer 1"><g class="cls-2"><path class="cls-3" d="M107.61,98.89l-1.74-.54c-.85,2.73-1.94,5.53-2.64,8.56a140.1,140.1,0,0,0-2.57,25.63c0,1.56,0,3,.14,4.25.08.93.15,1.82.15,2.64a8.33,8.33,0,0,1-.11,1.46,5.06,5.06,0,0,1-1.9,3.24,6.36,6.36,0,0,1-3.9,1.22,8.69,8.69,0,0,1-2-.24,7.79,7.79,0,0,1-4.1-2.35,7.5,7.5,0,0,1-1.77-4.37c-.21-2.19-.31-4.59-.31-7.13,0-12.46,2.52-28.17,6.92-38,3.89-8.7,9.48-15.66,18.18-19.49a41.15,41.15,0,0,1,16.7-3.72,36.27,36.27,0,0,1,5.56.42c4.38.66,8.54,1.25,12.33,2.92,7.31,3.21,12.6,8.49,16.6,15.39,5.85,10.15,8.06,21.3,8.29,33.05,0,2.47.37,8.77.37,12.83,0,1.15,0,2.13-.09,2.69a7.58,7.58,0,0,1-7.6,6.95,8.18,8.18,0,0,1-2.21-.31,5.52,5.52,0,0,1-2.95-1.84,5.1,5.1,0,0,1-1-3.22v-.1c0-.34,0-.72,0-1.12,0-4.67-.3-13.85-.37-17.56a56.76,56.76,0,0,0-3.6-19.84,17.58,17.58,0,0,0-2.34-4.27,1.82,1.82,0,0,0-3.28,1c0,.33-.09.78-.09,1.35v.06h0c.08,10.5.12,21,.25,31.52q.49,38,1,76c.09,5.59.42,11.12.52,16.6v.25a8,8,0,0,1-1.62,5.25,7.52,7.52,0,0,1-4.71,2.46,9.08,9.08,0,0,1-1.46.12,8.37,8.37,0,0,1-8-5.53,9.84,9.84,0,0,1-.49-2.94q-.62-32.67-1.17-65.36c0-.62,0-1.19-.08-1.84a1.83,1.83,0,0,0-1.82-1.74H128a1.82,1.82,0,0,0-1.82,1.73c0,.47-.07,1-.08,1.65Q125.56,189.31,125,222a9.79,9.79,0,0,1-1.09,4.6,7.23,7.23,0,0,1-3.33,3,9.87,9.87,0,0,1-4.24,1.05,8.45,8.45,0,0,1-5-1.7,6,6,0,0,1-1.94-2.15,5.77,5.77,0,0,1-.64-2.74V224c.1-6.9.47-13.84.53-20.84q.39-51.83.68-103.66l0-.41-.1-.43a1.84,1.84,0,0,0-1.32-1.36l-.47-.12a1.83,1.83,0,0,0-2.2,1.22l1.74.54-.46,1.77.47.12.46-1.76-1.77.4.09.43,1.78-.41h-1.82q-.33,51.82-.69,103.66c0,6.88-.42,13.82-.53,20.81v.16a9.51,9.51,0,0,0,1.07,4.44,9.79,9.79,0,0,0,3.05,3.43,12.1,12.1,0,0,0,7.08,2.36,13.25,13.25,0,0,0,5.81-1.41,10.86,10.86,0,0,0,4.94-4.52,13.27,13.27,0,0,0,1.55-6.31q.59-32.69,1.13-65.37c0-.46,0-1,.08-1.52l-1.82-.09v1.82h2.73v-1.82l-1.82.08c0,.7.07,1.24.08,1.74q.57,32.67,1.17,65.36a13.46,13.46,0,0,0,.67,4,12.13,12.13,0,0,0,13.49,7.83,11.23,11.23,0,0,0,6.91-3.72,11.62,11.62,0,0,0,2.45-7.58v-.31c-.11-5.59-.44-11.12-.53-16.59q-.56-38-1-76c-.13-10.49-.18-21-.25-31.49h0v0c0-.24,0-.6.07-1.09l-1.81-.13-1.46,1.09a14,14,0,0,1,1.87,3.41,53.41,53.41,0,0,1,3.35,18.58c.07,3.76.36,13,.36,17.5V139a8.73,8.73,0,0,0,1.8,5.47,9.15,9.15,0,0,0,4.84,3.11,12.07,12.07,0,0,0,3.18.44,11.23,11.23,0,0,0,11.23-10.25c.07-.8.1-1.83.1-3,0-4.21-.33-10.55-.37-12.9-.23-12.16-2.53-24-8.78-34.8C162,79.56,156.08,73.62,148,70.07c-4.4-1.93-8.91-2.51-13.23-3.18a41.3,41.3,0,0,0-6.12-.47,45,45,0,0,0-18.17,4c-9.72,4.27-15.94,12.14-20,21.34-4.71,10.61-7.22,26.53-7.24,39.47,0,2.64.11,5.15.33,7.47a11.2,11.2,0,0,0,2.66,6.44,11.47,11.47,0,0,0,6,3.48A12.53,12.53,0,0,0,95,149a9.93,9.93,0,0,0,6.12-2,8.67,8.67,0,0,0,3.27-5.5,11.55,11.55,0,0,0,.16-2.08c0-1-.09-2-.16-2.92-.08-1.13-.13-2.48-.13-4a136.38,136.38,0,0,1,2.49-24.82c.61-2.68,1.65-5.4,2.56-8.28l-1.74-.55-.46,1.77Z" transform="translate(-83.18 -10.14)"/><path class="cls-3" d="M146.6,43.11h-1.82v.07A15.56,15.56,0,0,1,129.33,58.7h-.15a15.64,15.64,0,0,1-15.47-15.52v-.06a15.68,15.68,0,0,1,15.55-15.54h0v0h0v0a15.61,15.61,0,0,1,15.5,15.53h3.64a19.24,19.24,0,0,0-19.14-19.16h-.06l0,1.82V23.94A19.32,19.32,0,0,0,110.06,43.1v.08a19.29,19.29,0,0,0,19.12,19.16h.18a19.2,19.2,0,0,0,19.06-19.16V43.1Z" transform="translate(-83.18 -10.14)"/><path class="cls-4" d="M131.43,84.07h4.49a1.13,1.13,0,0,1,.68.91c.07.8.19,1.61.29,2.42a.27.27,0,0,0,.23.29,12.48,12.48,0,0,1,2.64,1.1l.28,0c.67-.54,1.35-1.06,2-1.59a1,1,0,0,1,1.2,0L146.09,90a.93.93,0,0,1,.06,1.32l-1.55,2,0,.28a12.66,12.66,0,0,1,1.09,2.64.3.3,0,0,0,.3.24c.75.08,1.5.19,2.25.26a1.19,1.19,0,0,1,1.08.7v4.5a1.09,1.09,0,0,1-.91.67c-.81.08-1.62.2-2.43.29a.3.3,0,0,0-.29.24,12.66,12.66,0,0,1-1.09,2.64l0,.28c.51.67,1,1.33,1.56,2l.21.47c.09.45-.19.74-.48,1-.8.79-1.6,1.59-2.38,2.4a1,1,0,0,1-1.53.18l-1.94-1.52-.29,0a11.09,11.09,0,0,1-2.59,1.08.35.35,0,0,0-.29.36c-.09.81-.19,1.62-.3,2.42a.9.9,0,0,1-1,.86h-3.87a.91.91,0,0,1-1-.85l-.3-2.48a.29.29,0,0,0-.24-.29,11.9,11.9,0,0,1-2.63-1.1l-.29,0c-.66.53-1.33,1-2,1.57a.92.92,0,0,1-1.28-.06c-.93-.92-1.84-1.84-2.76-2.77a.93.93,0,0,1-.07-1.32l1.55-2,0-.28a11.84,11.84,0,0,1-1.06-2.55.41.41,0,0,0-.43-.34c-.81-.09-1.62-.19-2.42-.3a.89.89,0,0,1-.81-.94V97.73a.89.89,0,0,1,.83-.94l2.51-.31a.29.29,0,0,0,.29-.23,12,12,0,0,1,1.09-2.65l0-.28c-.54-.67-1.06-1.35-1.59-2a.92.92,0,0,1,0-1.21c.93-.94,1.87-1.88,2.81-2.81a.94.94,0,0,1,1.34-.06l2,1.54.29,0a11.9,11.9,0,0,1,2.63-1.1.29.29,0,0,0,.24-.29c.09-.75.19-1.5.26-2.25a1.19,1.19,0,0,1,.71-1.08m-5.56,15.61a7.81,7.81,0,1,0,7.83-7.79,7.78,7.78,0,0,0-7.83,7.79" transform="translate(-83.18 -10.14)"/><path class="cls-4" d="M115.28,10.14h4.5a1.1,1.1,0,0,1,.67.91c.08.81.19,1.61.29,2.42a.28.28,0,0,0,.24.29,12.4,12.4,0,0,1,2.63,1.1l.29,0,2-1.59a1,1,0,0,1,1.19,0l2.83,2.84a.92.92,0,0,1,.07,1.32c-.52.66-1,1.32-1.56,2l0,.28a12.7,12.7,0,0,1,1.1,2.64.29.29,0,0,0,.29.24c.75.08,1.5.19,2.25.26a1.18,1.18,0,0,1,1.08.7V28a1.08,1.08,0,0,1-.91.67c-.81.08-1.61.2-2.42.29a.29.29,0,0,0-.29.24,12.7,12.7,0,0,1-1.1,2.64l0,.28c.52.67,1,1.33,1.56,2l.21.47c.1.45-.18.74-.47,1-.8.79-1.6,1.59-2.39,2.4a1,1,0,0,1-1.53.18l-1.94-1.52-.28,0a11.16,11.16,0,0,1-2.6,1.08.35.35,0,0,0-.29.36c-.09.81-.19,1.62-.29,2.43a.9.9,0,0,1-1,.85h-3.87a.91.91,0,0,1-1-.85c-.11-.83-.21-1.65-.3-2.48a.29.29,0,0,0-.24-.29,12.18,12.18,0,0,1-2.64-1.1l-.28,0c-.66.53-1.33,1.05-2,1.57a.92.92,0,0,1-1.28-.06c-.93-.92-1.84-1.84-2.76-2.77a.93.93,0,0,1-.07-1.32c.52-.65,1-1.32,1.54-2l0-.28a11.81,11.81,0,0,1-1.05-2.55.42.42,0,0,0-.43-.34c-.81-.09-1.62-.18-2.42-.29a.9.9,0,0,1-.82-1V23.8a.9.9,0,0,1,.84-.94l2.5-.31c.16,0,.24-.06.29-.23a11.78,11.78,0,0,1,1.1-2.65l0-.28c-.53-.67-1.06-1.34-1.58-2a.94.94,0,0,1,0-1.21l2.82-2.81a.94.94,0,0,1,1.34-.06l2,1.54.28,0a12,12,0,0,1,2.64-1.1.29.29,0,0,0,.24-.29c.08-.75.19-1.5.26-2.25a1.18,1.18,0,0,1,.7-1.08m-5.56,15.62a7.81,7.81,0,1,0,7.83-7.8,7.79,7.79,0,0,0-7.83,7.8" transform="translate(-83.18 -10.14)"/></g></g></g></svg>