<svg xmlns="http://www.w3.org/2000/svg" xmlns:xlink="http://www.w3.org/1999/xlink" viewBox="0 0 182.64 163.75"><defs><style>.cls-1{fill:none;}.cls-2{clip-path:url(#clip-path);}.cls-3{fill:#efefee;}.cls-4{fill:#849f28;}.cls-5{fill:#849e28;}.cls-6{fill:#919da7;}.cls-7{fill:#003b4b;}</style><clipPath id="clip-path" transform="translate(-26 -35.27)"><rect class="cls-1" width="234.29" height="234.29"/></clipPath></defs><title>Demand_Capacity</title><g id="Layer_2" data-name="Layer 2"><g id="Layer_1-2" data-name="Layer 1"><g class="cls-2"><path class="cls-3" d="M195.51,199H39.12A13.16,13.16,0,0,1,26,185.9V61.76A13.15,13.15,0,0,1,39.12,48.64H195.51a13.15,13.15,0,0,1,13.12,13.12V185.9A13.16,13.16,0,0,1,195.51,199" transform="translate(-26 -35.27)"/><polyline class="cls-4" points="0 46.92 182.64 46.92 182.64 41.96 0 41.96"/><path class="cls-5" d="M74.92,62.89h-.54A5,5,0,0,1,69.45,58V40.2a5,5,0,0,1,4.93-4.93h.54a5,5,0,0,1,4.93,4.93V58a5,5,0,0,1-4.93,4.93" transform="translate(-26 -35.27)"/><path class="cls-5" d="M165.49,62.89H165A4.94,4.94,0,0,1,160,58V40.2A4.94,4.94,0,0,1,165,35.27h.53a5,5,0,0,1,4.94,4.93V58a5,5,0,0,1-4.94,4.93" transform="translate(-26 -35.27)"/><path class="cls-6" d="M52.8,115H43.56a4.43,4.43,0,0,1-4.42-4.42V101.3a4.43,4.43,0,0,1,4.42-4.42H52.8a4.42,4.42,0,0,1,4.41,4.42v9.24A4.42,4.42,0,0,1,52.8,115v-3.31a1.09,1.09,0,0,0,.78-.33,1.13,1.13,0,0,0,.33-.78V101.3a1.13,1.13,0,0,0-.33-.78,1.09,1.09,0,0,0-.78-.33H43.56a1.06,1.06,0,0,0-.78.33,1.09,1.09,0,0,0-.33.78v9.24a1.09,1.09,0,0,0,.33.78,1.06,1.06,0,0,0,.78.33H52.8V115" transform="translate(-26 -35.27)"/><path class="cls-6" d="M76.17,115H66.94a4.42,4.42,0,0,1-4.42-4.42V101.3a4.42,4.42,0,0,1,4.42-4.42h9.23a4.43,4.43,0,0,1,4.42,4.42v9.24A4.43,4.43,0,0,1,76.17,115v-3.31a1.1,1.1,0,0,0,.79-.33,1.12,1.12,0,0,0,.32-.78V101.3a1.12,1.12,0,0,0-.32-.78,1.1,1.1,0,0,0-.79-.33H66.94a1.13,1.13,0,0,0-1.12,1.11v9.24a1.13,1.13,0,0,0,1.12,1.11h9.23V115" transform="translate(-26 -35.27)"/><path class="cls-6" d="M99.55,115H90.31a4.43,4.43,0,0,1-4.42-4.42V101.3a4.43,4.43,0,0,1,4.42-4.42h9.24A4.42,4.42,0,0,1,104,101.3v9.24A4.42,4.42,0,0,1,99.55,115v-3.31a1.13,1.13,0,0,0,1.11-1.11V101.3a1.13,1.13,0,0,0-1.11-1.11H90.31a1.13,1.13,0,0,0-1.11,1.11v9.24a1.13,1.13,0,0,0,1.11,1.11h9.24V115" transform="translate(-26 -35.27)"/><path class="cls-7" d="M122.77,187.58h-8.93a2.92,2.92,0,0,1-2.92-2.91V101.45a2.93,2.93,0,0,1,2.92-2.92h8.93a2.93,2.93,0,0,1,2.92,2.92v83.22a2.92,2.92,0,0,1-2.92,2.91" transform="translate(-26 -35.27)"/><path class="cls-6" d="M145.92,115h-9.24a4.43,4.43,0,0,1-4.42-4.42V101.3a4.43,4.43,0,0,1,4.42-4.42h9.24a4.42,4.42,0,0,1,4.41,4.42v9.24a4.42,4.42,0,0,1-4.41,4.42v-3.31a1.13,1.13,0,0,0,1.11-1.11V101.3a1.13,1.13,0,0,0-1.11-1.11h-9.24a1.13,1.13,0,0,0-1.11,1.11v9.24a1.13,1.13,0,0,0,1.11,1.11h9.24V115" transform="translate(-26 -35.27)"/><path class="cls-6" d="M169.29,115h-9.23a4.42,4.42,0,0,1-4.42-4.42V101.3a4.42,4.42,0,0,1,4.42-4.42h9.23a4.43,4.43,0,0,1,4.42,4.42v9.24a4.43,4.43,0,0,1-4.42,4.42v-3.31a1.11,1.11,0,0,0,1.11-1.11V101.3a1.11,1.11,0,0,0-1.11-1.11h-9.23a1.13,1.13,0,0,0-1.12,1.11v9.24a1.13,1.13,0,0,0,1.12,1.11h9.23V115" transform="translate(-26 -35.27)"/><path class="cls-6" d="M192.64,115h-9.23a4.42,4.42,0,0,1-4.42-4.42V101.3a4.42,4.42,0,0,1,4.42-4.42h9.23a4.43,4.43,0,0,1,4.42,4.42v9.24a4.43,4.43,0,0,1-4.42,4.42v-3.31a1.13,1.13,0,0,0,1.11-1.11V101.3a1.13,1.13,0,0,0-1.11-1.11h-9.23a1.13,1.13,0,0,0-1.12,1.11v9.24a1.13,1.13,0,0,0,1.12,1.11h9.23V115" transform="translate(-26 -35.27)"/><path class="cls-6" d="M53,139.72H43.76a4.42,4.42,0,0,1-4.41-4.42v-9.24a4.42,4.42,0,0,1,4.41-4.42H53a4.43,4.43,0,0,1,4.42,4.42v9.24A4.43,4.43,0,0,1,53,139.72v-3.31a1.13,1.13,0,0,0,1.11-1.11v-9.24A1.13,1.13,0,0,0,53,125H43.76a1.13,1.13,0,0,0-1.11,1.11v9.24a1.13,1.13,0,0,0,1.11,1.11H53v3.31" transform="translate(-26 -35.27)"/><path class="cls-7" d="M76.23,187.58H67.29a2.92,2.92,0,0,1-2.92-2.91V126.21a2.92,2.92,0,0,1,2.92-2.91h8.94a2.92,2.92,0,0,1,2.91,2.91v58.46a2.92,2.92,0,0,1-2.91,2.91" transform="translate(-26 -35.27)"/><path class="cls-6" d="M99.75,139.72H90.52a4.42,4.42,0,0,1-4.42-4.42v-9.24a4.42,4.42,0,0,1,4.42-4.42h9.23a4.43,4.43,0,0,1,4.42,4.42v9.24a4.43,4.43,0,0,1-4.42,4.42v-3.31a1.1,1.1,0,0,0,.79-.33,1.12,1.12,0,0,0,.32-.78v-9.24a1.12,1.12,0,0,0-.32-.78,1.1,1.1,0,0,0-.79-.33H90.52a1.13,1.13,0,0,0-1.12,1.11v9.24a1.13,1.13,0,0,0,1.12,1.11h9.23v3.31" transform="translate(-26 -35.27)"/><path class="cls-7" d="M146,187.58H137a2.92,2.92,0,0,1-2.91-2.91V126.21A2.92,2.92,0,0,1,137,123.3H146a2.93,2.93,0,0,1,2.92,2.91v58.46a2.93,2.93,0,0,1-2.92,2.91" transform="translate(-26 -35.27)"/><path class="cls-6" d="M169.49,139.72h-9.23a4.43,4.43,0,0,1-4.42-4.42v-9.24a4.43,4.43,0,0,1,4.42-4.42h9.23a4.42,4.42,0,0,1,4.42,4.42v9.24a4.42,4.42,0,0,1-4.42,4.42v-3.31a1.13,1.13,0,0,0,1.12-1.11v-9.24a1.13,1.13,0,0,0-1.12-1.11h-9.23a1.11,1.11,0,0,0-1.11,1.11v9.24a1.11,1.11,0,0,0,1.11,1.11h9.23v3.31" transform="translate(-26 -35.27)"/><path class="cls-6" d="M192.84,139.72h-9.23a4.43,4.43,0,0,1-4.42-4.42v-9.24a4.43,4.43,0,0,1,4.42-4.42h9.23a4.42,4.42,0,0,1,4.42,4.42v9.24a4.42,4.42,0,0,1-4.42,4.42v-3.31a1.1,1.1,0,0,0,.79-.33,1.13,1.13,0,0,0,.33-.78v-9.24a1.13,1.13,0,0,0-.33-.78,1.1,1.1,0,0,0-.79-.33h-9.23a1.1,1.1,0,0,0-.79.33,1.12,1.12,0,0,0-.32.78v9.24a1.12,1.12,0,0,0,.32.78,1.1,1.1,0,0,0,.79.33h9.23v3.31" transform="translate(-26 -35.27)"/><path class="cls-7" d="M53.05,187.58H44.12a2.92,2.92,0,0,1-2.92-2.91V151a2.92,2.92,0,0,1,2.92-2.91h8.93A2.92,2.92,0,0,1,56,151v33.7a2.92,2.92,0,0,1-2.92,2.91" transform="translate(-26 -35.27)"/><path class="cls-7" d="M99.81,187.58h-9A2.92,2.92,0,0,1,88,184.67V151a2.92,2.92,0,0,1,2.91-2.91h9a2.92,2.92,0,0,1,2.91,2.91v33.7a2.92,2.92,0,0,1-2.91,2.91" transform="translate(-26 -35.27)"/><path class="cls-7" d="M169.55,187.58h-8.94a2.92,2.92,0,0,1-2.91-2.91V151a2.92,2.92,0,0,1,2.91-2.91h8.94a2.91,2.91,0,0,1,2.91,2.91v33.7a2.91,2.91,0,0,1-2.91,2.91" transform="translate(-26 -35.27)"/><path class="cls-6" d="M193.05,164.48h-9.24a4.43,4.43,0,0,1-4.42-4.42v-9.24a4.42,4.42,0,0,1,4.42-4.41h9.24a4.42,4.42,0,0,1,4.42,4.41v9.24a4.43,4.43,0,0,1-4.42,4.42v-3.31a1.13,1.13,0,0,0,1.11-1.11v-9.24a1.13,1.13,0,0,0-1.11-1.11h-9.24a1.13,1.13,0,0,0-1.11,1.11v9.24a1.13,1.13,0,0,0,1.11,1.11h9.24v3.31" transform="translate(-26 -35.27)"/><path class="cls-7" d="M193.1,187.58h-8.94a2.92,2.92,0,0,1-2.91-2.91v-8.94a2.92,2.92,0,0,1,2.91-2.91h8.94a2.92,2.92,0,0,1,2.92,2.91v8.94a2.92,2.92,0,0,1-2.92,2.91" transform="translate(-26 -35.27)"/><polygon class="cls-4" points="20.38 72.35 44.49 97.89 68.06 97.89 92.3 123.79 115.54 99.26 136.88 120.93 160.19 146.6 163.86 143.26 140.48 117.52 115.47 92.12 92.32 116.55 70.21 92.93 46.63 92.93 23.98 68.95 20.38 72.35"/></g></g></g></svg>