<svg xmlns="http://www.w3.org/2000/svg" viewBox="0 0 294 222.57"><defs><style>.cls-1{fill:#f0efef;}.cls-2{fill:#849e28;}.cls-3{fill:#c2c27e;}.cls-4{fill:#fff;}.cls-5{fill:#003b4b;}.cls-6{fill:none;}.cls-7{writing-mode:tb;text-orientation:upright;glyph-orientation-vertical:0deg;}</style></defs><title>Document_Managment</title><g id="Layer_2" data-name="Layer 2"><g id="Layer_1-2" data-name="Layer 1"><path class="cls-1" d="M22.08,185.94H257.62V25.76l-7.14-.69L252,15.13H100.23V8.86H20.75s2.66,178.42,1.33,177.08"/><path class="cls-2" d="M89.53,62.11H252a1.33,1.33,0,0,0,1.33-1.34V16.47A1.33,1.33,0,0,0,252,15.13H89.53a1.34,1.34,0,0,0-1.34,1.34v44.3a1.34,1.34,0,0,0,1.34,1.34"/><path class="cls-3" d="M22.08,185.94H257.62a1.33,1.33,0,0,0,1.33-1.33V27.1a1.34,1.34,0,0,0-1.33-1.34H22.08a1.35,1.35,0,0,0-1.34,1.34V184.61a1.34,1.34,0,0,0,1.34,1.33"/><path class="cls-3" d="M22.08,55.84H99.4a1.34,1.34,0,0,0,1.33-1.34V10.2A1.34,1.34,0,0,0,99.4,8.86H22.08a1.35,1.35,0,0,0-1.34,1.34V54.5a1.35,1.35,0,0,0,1.34,1.34"/><rect class="cls-4" x="39.96" y="141.51" width="51.07" height="18"/><polygon class="cls-4" points="111.27 109.29 130.48 128.5 169.09 89.89 162.4 83.2 130.48 115.11 117.96 102.59 111.27 109.29"/><path class="cls-5" d="M211.58,78.44H232.3c1.67.92,2.92,2.09,3.12,4.19.35,3.74.9,7.46,1.33,11.19a1.33,1.33,0,0,0,1.09,1.36,54.87,54.87,0,0,1,12.17,5,1,1,0,0,0,1.31-.14c3.09-2.46,6.2-4.88,9.31-7.32a4.35,4.35,0,0,1,5.51,0q6.54,6.53,13.06,13.09a4.28,4.28,0,0,1,.29,6.08c-2.4,3-4.76,6.11-7.17,9.13a1,1,0,0,0-.11,1.31,55.9,55.9,0,0,1,5.07,12.17,1.33,1.33,0,0,0,1.34,1.09c3.47.39,6.93.89,10.4,1.2a5.49,5.49,0,0,1,5,3.25v20.72a5.09,5.09,0,0,1-4.19,3.12c-3.74.37-7.46.91-11.19,1.34a1.33,1.33,0,0,0-1.34,1.09,60.59,60.59,0,0,1-5,12.19,1.42,1.42,0,0,0,.13,1.26c2.37,3.11,4.82,6.16,7.19,9.27a5.58,5.58,0,0,1,1,2.15c.45,2.08-.84,3.42-2.18,4.75-3.69,3.66-7.38,7.33-11,11.07-2.35,2.43-4.61,2.75-7.05.84-3-2.35-6-4.67-8.95-7a1,1,0,0,0-1.32-.13,52.79,52.79,0,0,1-11.95,5,1.61,1.61,0,0,0-1.35,1.65q-.63,5.61-1.36,11.19a4.16,4.16,0,0,1-4.49,4H213a4.22,4.22,0,0,1-4.51-4q-.72-5.7-1.38-11.41a1.33,1.33,0,0,0-1.1-1.34,55.59,55.59,0,0,1-12.17-5.06,1,1,0,0,0-1.3.12c-3.06,2.44-6.15,4.83-9.22,7.25a4.29,4.29,0,0,1-5.93-.27c-4.26-4.24-8.48-8.51-12.72-12.78a4.31,4.31,0,0,1-.32-6.08q3.62-4.56,7.13-9.17a1.41,1.41,0,0,0,.13-1.26,56.13,56.13,0,0,1-4.87-11.75,1.92,1.92,0,0,0-2-1.6q-5.61-.58-11.19-1.35a4.12,4.12,0,0,1-3.73-4.35q0-9,0-18.07a4.16,4.16,0,0,1,3.85-4.37q5.76-.75,11.53-1.4a1.32,1.32,0,0,0,1.34-1.09,55,55,0,0,1,5.06-12.18,1,1,0,0,0-.12-1.31c-2.46-3.09-4.87-6.21-7.31-9.31a4.33,4.33,0,0,1,.11-5.59q6.48-6.49,13-13a4.29,4.29,0,0,1,6.17-.24c3,2.38,6,4.71,9,7.1a1,1,0,0,0,1.31.12A56.19,56.19,0,0,1,206,95.16a1.32,1.32,0,0,0,1.09-1.34c.39-3.47.89-6.92,1.2-10.4a5.49,5.49,0,0,1,3.26-5m-25.64,72a36,36,0,1,0,36.12-36,35.93,35.93,0,0,0-36.12,36"/><line class="cls-6" x2="97"/><text class="cls-7"/></g></g></svg>