<svg xmlns="http://www.w3.org/2000/svg" xmlns:xlink="http://www.w3.org/1999/xlink" viewBox="0 0 247.14 172.16"><defs><style>.cls-1{fill:none;}.cls-2{clip-path:url(#clip-path);}.cls-3{fill:#849e28;}.cls-4{fill:#fff;}.cls-5{fill:#efe23b;}.cls-6{fill:#888987;}.cls-7{fill:#e07355;}.cls-8{fill:#003b4b;}</style><clipPath id="clip-path" transform="translate(-1.19 -17.93)"><rect class="cls-1" width="257.94" height="213.18"/></clipPath></defs><title>Asset 2</title><g id="Layer_2" data-name="Layer 2"><g id="Layer_1-2" data-name="Layer 1"><g class="cls-2"><path class="cls-3" d="M23.79,168.25V166a4.23,4.23,0,0,1-4.24-4.23V44.16a4.25,4.25,0,0,1,8.49,0v117.6A4.25,4.25,0,0,1,23.79,166v4.51a8.77,8.77,0,0,0,8.79-8.74V44.16a8.79,8.79,0,0,0-17.57,0v117.6a8.77,8.77,0,0,0,8.78,8.74Z" transform="translate(-1.19 -17.93)"/><path class="cls-3" d="M73.48,168.11v-2.26a4.24,4.24,0,0,1-3-1.24,4.18,4.18,0,0,1-1.25-3V44a4.18,4.18,0,0,1,1.25-3,4.25,4.25,0,0,1,7.25,3V161.63a4.25,4.25,0,0,1-4.25,4.22v4.52a8.78,8.78,0,0,0,8.78-8.74V44a8.79,8.79,0,0,0-17.57,0V161.63a8.79,8.79,0,0,0,8.79,8.74Z" transform="translate(-1.19 -17.93)"/><path class="cls-3" d="M121.2,168.25V166a4.27,4.27,0,0,1-4.26-4.23V44.16a4.25,4.25,0,0,1,8.5,0v117.6A4.25,4.25,0,0,1,121.2,166v4.51a8.77,8.77,0,0,0,8.78-8.74V44.16a8.79,8.79,0,0,0-17.57,0v117.6a8.77,8.77,0,0,0,8.79,8.74Z" transform="translate(-1.19 -17.93)"/><path class="cls-3" d="M172.73,166.89v-2.26a4.25,4.25,0,0,1-4.25-4.23V42.8a4.18,4.18,0,0,1,1.25-3,4.25,4.25,0,0,1,7.25,3V160.4a4.25,4.25,0,0,1-4.25,4.23v4.51a8.77,8.77,0,0,0,8.78-8.74V42.8a8.79,8.79,0,0,0-17.57,0V160.4a8.77,8.77,0,0,0,8.79,8.74Z" transform="translate(-1.19 -17.93)"/><path class="cls-3" d="M225.16,167v-2.26a4.25,4.25,0,0,1-4.25-4.23V42.94a4.16,4.16,0,0,1,1.25-3,4.23,4.23,0,0,1,6,0,4.16,4.16,0,0,1,1.25,3v117.6a4.2,4.2,0,0,1-1.25,3,4.26,4.26,0,0,1-3,1.24v4.51a8.78,8.78,0,0,0,8.78-8.74V42.94a8.79,8.79,0,0,0-17.57,0v117.6a8.79,8.79,0,0,0,8.79,8.74Z" transform="translate(-1.19 -17.93)"/><path class="cls-4" d="M45.28,166.89a20.91,20.91,0,1,1-20.91-20.81,20.85,20.85,0,0,1,20.91,20.81" transform="translate(-1.19 -17.93)"/><path class="cls-3" d="M45.28,166.89H43A18.4,18.4,0,0,1,37.55,180a18.69,18.69,0,0,1-26.36,0,18.48,18.48,0,0,1,0-26.23,18.71,18.71,0,0,1,26.36,0A18.42,18.42,0,0,1,43,166.89h4.54A23.18,23.18,0,1,0,24.37,190a23.13,23.13,0,0,0,23.18-23.06Z" transform="translate(-1.19 -17.93)"/><path class="cls-4" d="M94.9,167A20.91,20.91,0,1,1,74,146.22,20.87,20.87,0,0,1,94.9,167" transform="translate(-1.19 -17.93)"/><path class="cls-3" d="M94.9,167H92.63a18.41,18.41,0,0,1-5.46,13.11,18.71,18.71,0,0,1-26.36,0,18.46,18.46,0,0,1,0-26.23,18.69,18.69,0,0,1,26.36,0A18.42,18.42,0,0,1,92.63,167h4.54A23.18,23.18,0,1,0,74,190.09,23.13,23.13,0,0,0,97.17,167Z" transform="translate(-1.19 -17.93)"/><path class="cls-4" d="M143.1,41a20.91,20.91,0,1,1-20.91-20.8A20.86,20.86,0,0,1,143.1,41" transform="translate(-1.19 -17.93)"/><path class="cls-3" d="M143.1,41h-2.27a18.59,18.59,0,1,1-5.46-13.12A18.44,18.44,0,0,1,140.83,41h4.54a23.18,23.18,0,1,0-23.18,23.06A23.13,23.13,0,0,0,145.37,41Z" transform="translate(-1.19 -17.93)"/><path class="cls-4" d="M194.09,41a20.92,20.92,0,1,1-20.91-20.8A20.87,20.87,0,0,1,194.09,41" transform="translate(-1.19 -17.93)"/><path class="cls-3" d="M194.09,41h-2.27a18.59,18.59,0,1,1-5.46-13.12A18.48,18.48,0,0,1,191.82,41h4.53a23.18,23.18,0,1,0-23.17,23.06A23.11,23.11,0,0,0,196.35,41Z" transform="translate(-1.19 -17.93)"/><path class="cls-4" d="M246.07,166.89a20.91,20.91,0,1,1-20.91-20.81,20.85,20.85,0,0,1,20.91,20.81" transform="translate(-1.19 -17.93)"/><path class="cls-3" d="M246.07,166.89H243.8A18.4,18.4,0,0,1,238.34,180,18.69,18.69,0,0,1,212,180a18.59,18.59,0,1,1,31.82-13.11h4.54A23.18,23.18,0,1,0,225.16,190a23.14,23.14,0,0,0,23.18-23.06Z" transform="translate(-1.19 -17.93)"/><path class="cls-5" d="M173.87,41V28.41c0-.34,0-.41.37-.5a3.51,3.51,0,0,1,3.44.83.39.39,0,0,1,.1.49c-.16.36-.31.72-.47,1.09a3.77,3.77,0,0,0,.09,3.26,2.29,2.29,0,0,1,.3,1.33,2.69,2.69,0,0,1-.51,1.13l-1.29,2-.09.18a.34.34,0,0,0,.15.42.35.35,0,0,0,.45-.11c.54-.82,1.09-1.64,1.61-2.47a2.6,2.6,0,0,0,.08-2.59,6.28,6.28,0,0,1-.39-1.18,2.65,2.65,0,0,1,.21-1.59c.15-.38.32-.76.49-1.14a.33.33,0,0,1,.51-.17,5.72,5.72,0,0,1,2.3,2.25c.15.28.05.49-.27.53a4.1,4.1,0,0,0-1.44.49.33.33,0,0,0-.19.38.3.3,0,0,0,.31.26l.27-.08a2.76,2.76,0,0,1,1.8-.33,1.56,1.56,0,0,1,.52.2,5.55,5.55,0,0,1,2.51,3.62c.08.34-.13.53-.46.43a3.14,3.14,0,0,0-2.45.37,6,6,0,0,0-2.24,2.18c-.5.79-1,1.58-1.54,2.36a4.85,4.85,0,0,1-1.64,1.51.34.34,0,0,0-.16.48.35.35,0,0,0,.49.12,5.25,5.25,0,0,0,1.82-1.65c.57-.81,1.1-1.63,1.62-2.47a5.23,5.23,0,0,1,2.23-2,2.33,2.33,0,0,1,1.42-.26,1.51,1.51,0,0,1,1.18.91,5.5,5.5,0,0,1-.16,4.92,11.9,11.9,0,0,1-.83,1.3,1,1,0,0,1-1.51.34c-.31-.18-.6-.39-.9-.59a2.13,2.13,0,0,0-1.63-.34,2.06,2.06,0,0,0-1.4,1,.34.34,0,1,0,.58.36,1.4,1.4,0,0,1,1.2-.74,1.43,1.43,0,0,1,.89.28c.26.17.51.36.79.52a1.82,1.82,0,0,0,2.21,0l.36,0,.15.31a4.47,4.47,0,0,1-3.13,3.75,3,3,0,0,1-2.32-.39l-.38-.23a.34.34,0,0,0-.48.1.33.33,0,0,0,.11.48,4.08,4.08,0,0,0,2.78.79,6.42,6.42,0,0,0,1-.24c.16,0,.31-.08.44.06a.35.35,0,0,1,0,.44,4.38,4.38,0,0,1-2.93,2.39l-.31.17a4.79,4.79,0,0,1-5.34.82.49.49,0,0,1-.31-.49q0-6.3,0-12.59" transform="translate(-1.19 -17.93)"/><path class="cls-5" d="M173.18,41c0,4.19,0,8.38,0,12.58a.49.49,0,0,1-.31.5,4.81,4.81,0,0,1-5.32-.8l-.38-.2a4.38,4.38,0,0,1-2.88-2.36c-.07-.16-.13-.32,0-.46s.3-.11.47,0a3.7,3.7,0,0,0,3.33-.33l.38-.23a.35.35,0,0,0,.13-.47.37.37,0,0,0-.5-.11l-.38.23a3.08,3.08,0,0,1-3.62-.25,4.8,4.8,0,0,1-1.83-3,.34.34,0,0,1,.15-.39l.39,0a1.72,1.72,0,0,0,2,.15,11,11,0,0,0,1-.65,1.44,1.44,0,0,1,1.21-.23,1.36,1.36,0,0,1,.78.57l.11.16a.34.34,0,0,0,.46.12.33.33,0,0,0,.12-.47,2,2,0,0,0-1.6-1.09,2.08,2.08,0,0,0-1.47.37c-.22.15-.43.31-.65.44a2.73,2.73,0,0,1-.6.28.87.87,0,0,1-.87-.18l-.13-.12a6.66,6.66,0,0,1-1.63-4,5.72,5.72,0,0,1,.42-2.27,1.64,1.64,0,0,1,2-1,4.4,4.4,0,0,1,2.6,1.82c.49.7.93,1.45,1.4,2.18a7.59,7.59,0,0,0,1.94,2.13,4.34,4.34,0,0,0,.46.28.33.33,0,0,0,.44-.14.32.32,0,0,0-.11-.45A6.93,6.93,0,0,1,168.32,41c-.47-.73-.9-1.49-1.43-2.16A4.87,4.87,0,0,0,164.07,37a2.36,2.36,0,0,0-1.29.05c-.35.11-.55-.08-.47-.44A5.56,5.56,0,0,1,164.89,33a1.77,1.77,0,0,1,1.39-.13,6.76,6.76,0,0,1,.89.33c.22.1.42.07.52-.12a.35.35,0,0,0-.19-.48,3.58,3.58,0,0,0-1.31-.45l-.14,0a.32.32,0,0,1-.25-.49,5.62,5.62,0,0,1,2.36-2.32.31.31,0,0,1,.44.14,7.93,7.93,0,0,1,.75,2.11,3.09,3.09,0,0,1-.27,1.56,8.78,8.78,0,0,0-.37,1A2.26,2.26,0,0,0,169,36c.27.45.58.88.87,1.32s.48.74.71,1.12c.13.22.31.3.5.21a.35.35,0,0,0,.1-.54c-.33-.53-.67-1.05-1-1.57-.19-.28-.39-.56-.56-.86a1.79,1.79,0,0,1-.12-1.71,11,11,0,0,0,.49-1.36,3.3,3.3,0,0,0-.21-2.14c-.16-.4-.33-.79-.5-1.18a.37.37,0,0,1,.12-.52,3.49,3.49,0,0,1,3.41-.81c.33.08.39.17.39.5Z" transform="translate(-1.19 -17.93)"/><path class="cls-6" d="M131.34,26.91,135.42,31l-.43.49a23.93,23.93,0,0,0-2.54,3.32,13.37,13.37,0,0,0-1.89,4.78c-.08.44-.12.89-.24,1.32a4.78,4.78,0,0,1-2.28,3,2.27,2.27,0,0,1-1.65.3,1.66,1.66,0,0,1-1.1-.75,12.23,12.23,0,0,1-.62-1.12,4.73,4.73,0,0,0-1.53-1.9c-.38-.25-.78-.47-1.17-.7s-.65-.37-1-.59a2.45,2.45,0,0,1-.9-1.57,5.3,5.3,0,0,1-.14-1.59,5,5,0,0,1,.23-1.15,2.4,2.4,0,0,1,1.54-1.47c.66-.24,1.35-.41,2-.6a6.46,6.46,0,0,0,1.77-.64A9.93,9.93,0,0,0,127,31c1.22-1.11,2.42-2.24,3.62-3.37l.65-.58.09-.11Z" transform="translate(-1.19 -17.93)"/><path class="cls-6" d="M115.45,54.37l-5-5c.33-.36.67-.71,1-1.07.7-.79,1.42-1.56,2.08-2.38a11.3,11.3,0,0,0,2.17-4.57c.2-.77.38-1.54.6-2.3a5.24,5.24,0,0,1,1.6-2.36.64.64,0,0,1,1,.33c.08.44.19.89.31,1.33a5.78,5.78,0,0,0,.25.65,2.34,2.34,0,0,0,1.19,1.17c.53.26,1.06.51,1.57.79a3.09,3.09,0,0,1,1.41,1.61,8.06,8.06,0,0,0,.59,1.22,2.63,2.63,0,0,0,2,1.25l.4.08a.53.53,0,0,1,.4.77,3.77,3.77,0,0,1-.5.75,4.63,4.63,0,0,1-1.61,1.2L122.58,49a23.52,23.52,0,0,0-4.86,3.27c-.74.65-1.45,1.34-2.17,2Z" transform="translate(-1.19 -17.93)"/><path class="cls-4" d="M66.74,165.31a8.55,8.55,0,0,0,5.13-3.68,1.46,1.46,0,0,0-.15-1.65,7.06,7.06,0,0,0-.86-.87A.69.69,0,0,0,70,159a1.08,1.08,0,0,1-1.38-.3,15.4,15.4,0,0,0-1.34-1.34,1,1,0,0,0-1.53.05c-.56.55-.6,1-.1,1.55s1,1,1.52,1.53a.84.84,0,0,1,.24.51,20.05,20.05,0,0,1-.19,2.45,18.44,18.44,0,0,1-.52,1.9" transform="translate(-1.19 -17.93)"/><path class="cls-7" d="M77.05,155.48c.64.28,1.19.68,1.13,1.45a3.28,3.28,0,0,1-.46,1.2c-.1.2-.33.29-.2.6a.59.59,0,0,0,.62.42c1,0,2.07.12,3.11.19a1.51,1.51,0,0,1,1.47,1.26,1.48,1.48,0,0,1-1,1.69,3.81,3.81,0,0,1-1.07.08,4.54,4.54,0,0,0-2.33.32l2.27,2.09.67-.72c.55-.57,1-.65,1.53-.26a1.1,1.1,0,0,1,.35,1.68c.8.53.94.91.62,1.73-.23.57-.46.62-1.94.44.15.91.34,1.8.43,2.7.19,2,.38,3.94.46,5.91a2.08,2.08,0,0,1-2.06,2.18,17.58,17.58,0,0,1-2,.09,13.35,13.35,0,0,1-8.29-2.7,9.94,9.94,0,0,1-3.92-6,8.28,8.28,0,0,1,.07-3.4.73.73,0,0,1,.44-.38,10.24,10.24,0,0,0,4.73-2.76l.31-.34a2.71,2.71,0,0,0-.41-4.33,8.84,8.84,0,0,1-.9-.68,1.45,1.45,0,0,1-.4-.64c-.11-.47-.15-1,.4-1.24a1.28,1.28,0,0,1,1.69.21c.32.42.57.35,1,.19a9.06,9.06,0,0,1,1.49-.21,1.85,1.85,0,0,0,.63-.19c.31-.17.59-.39.89-.59Zm2.69,6.15v-1.54H78.48a.76.76,0,0,0-.76.74.75.75,0,0,0,.76.79c.43,0,.86,0,1.26,0" transform="translate(-1.19 -17.93)"/><path class="cls-7" d="M66.74,165.31a18.44,18.44,0,0,0,.52-1.9,20.05,20.05,0,0,0,.19-2.45.84.84,0,0,0-.24-.51c-.5-.52-1-1-1.52-1.53s-.46-1,.1-1.55a1,1,0,0,1,1.53-.05,15.4,15.4,0,0,1,1.34,1.34A1.08,1.08,0,0,0,70,159a.69.69,0,0,1,.82.15,7.06,7.06,0,0,1,.86.87,1.46,1.46,0,0,1,.15,1.65,8.55,8.55,0,0,1-5.13,3.68" transform="translate(-1.19 -17.93)"/><path class="cls-4" d="M79.74,161.63c-.4,0-.83,0-1.26,0a.75.75,0,0,1-.76-.79.76.76,0,0,1,.76-.74h1.26Z" transform="translate(-1.19 -17.93)"/><path class="cls-8" d="M30.64,181l-.79-1.34,2-1.31c-.44-.68-.85-1.33-1.29-2l-3.14,2-.6-.9,1.07-.75-9.16-14.32,6.38-4.06,9.16,14.33,1.1-.68.6.92-3.13,2,1.29,2,2-1.27.88,1.23v.1c-1.26.79-2.51,1.57-3.76,2.37-.86.54-1.7,1.11-2.55,1.68Zm-8-13.95,5.65,8.69,5.11-3.36-1.27-1.94-2.25,1.45-.31-.49,2.23-1.46-.66-1-2.56,1.65-.31-.5,2.55-1.66-.73-1.09-2.78,1.79c-.11-.2-.2-.34-.29-.5l2.76-1.8-2-3.12-5.1,3.35" transform="translate(-1.19 -17.93)"/><path class="cls-8" d="M18.72,157.65l.63-.51L17,152.6l.17-.11c1,1.37,2,2.74,3,4.13l.69-.35c.27.39.54.75.78,1.14a.57.57,0,0,0,.64.3,5.42,5.42,0,0,1,2.64.31l-6.28,4a4.67,4.67,0,0,1,.73-2.37.73.73,0,0,0,0-1,9.05,9.05,0,0,1-.62-1" transform="translate(-1.19 -17.93)"/><path class="cls-3" d="M231.25,156.16c2.45,1.57,4.77,3,7.07,4.56a.94.94,0,0,1,.23.81q-2,6.69-4.07,13.36a6.42,6.42,0,0,1-.84,1.65c-1.34,2-3.2,2-5.37,1.46-.17,0-.38-.57-.31-.79a5.41,5.41,0,0,0-1.07-5.54.81.81,0,0,1-.1-.63c1.46-4.91,2.94-9.82,4.46-14.88" transform="translate(-1.19 -17.93)"/><path class="cls-3" d="M227.18,177.75c-2.51-.81-4.93-1.58-7.34-2.38-.2-.06-.51-.27-.51-.41.06-1.1-.34-2.29.54-3.27a4.12,4.12,0,0,1,.7-.79,1.44,1.44,0,0,1,1-.27c1.47.33,2.93.72,4.37,1.15a2,2,0,0,1,1,.76,5.11,5.11,0,0,1,.28,5.21" transform="translate(-1.19 -17.93)"/><path class="cls-3" d="M238.17,160c-2-1.25-3.79-2.42-5.62-3.62a.66.66,0,0,1-.27-.55.68.68,0,0,1,.52-.34,4.74,4.74,0,0,1,1.41.16c1.4.45,2.79.95,4.18,1.43.6.2.75.57.48,1.16s-.44,1.09-.7,1.76" transform="translate(-1.19 -17.93)"/><polyline class="cls-3" points="218.81 151.24 216.34 144.39 214.92 144.9 217.38 151.74"/><polyline class="cls-3" points="217.19 152.93 210.58 149.82 209.93 151.18 216.54 154.28"/><polyline class="cls-3" points="216.74 155.05 209.87 157.51 210.38 158.93 217.25 156.47"/></g></g></g></svg>